<?xml version="1.0" standalone="no"?>
<!DOCTYPE svg PUBLIC "-//W3C//DTD SVG 20010904//EN"
 "http://www.w3.org/TR/2001/REC-SVG-20010904/DTD/svg10.dtd">
<svg version="1.0" xmlns="http://www.w3.org/2000/svg"
 width="2134.000000pt" height="2134.000000pt" viewBox="0 0 2134.000000 2134.000000"
 preserveAspectRatio="xMidYMid meet">
<metadata>
Created by potrace 1.11, written by Peter Selinger 2001-2013
</metadata>
<g transform="translate(0.000000,2134.000000) scale(0.100000,-0.100000)"
fill="#000000" stroke="none">
<path d="M10385 21004 c-511 -17 -987 -64 -1460 -144 -2816 -475 -5319 -2114
-6901 -4520 -930 -1414 -1500 -3048 -1649 -4730 -53 -606 -53 -1264 0 -1870
262 -2956 1798 -5665 4210 -7422 970 -707 2066 -1245 3210 -1574 608 -175
1273 -301 1895 -358 365 -34 519 -40 965 -41 469 0 661 8 1035 46 2238 223
4298 1145 5965 2669 180 164 567 556 721 730 1471 1659 2355 3671 2573 5860
38 374 46 566 46 1035 -1 446 -7 600 -41 965 -82 896 -296 1825 -613 2663
-144 380 -262 649 -451 1022 -1348 2666 -3788 4623 -6675 5355 -632 160 -1279
259 -1955 300 -182 10 -718 19 -875 14z m635 -2174 c2053 -114 3948 -958 5395
-2405 1162 -1163 1941 -2617 2261 -4221 109 -549 154 -1019 154 -1614 0 -462
-21 -764 -81 -1184 -348 -2441 -1798 -4619 -3924 -5894 -1169 -700 -2444
-1088 -3830 -1163 -243 -13 -804 -7 -1020 11 -942 79 -1779 280 -2585 620 -69
29 -173 70 -231 90 -62 21 -132 54 -167 78 -33 22 -102 62 -153 87 -128 65
-338 182 -499 278 -1664 997 -2948 2585 -3565 4409 -239 704 -367 1347 -426
2128 -27 355 -15 979 27 1390 175 1717 887 3331 2044 4634 1458 1641 3507
2631 5705 2755 210 12 686 12 895 1z"/>
<path d="M10661 17372 c-254 -506 -299 -578 -445 -720 -141 -137 -285 -226
-468 -290 -185 -66 -169 -64 -903 -72 -565 -6 -681 -10 -737 -23 -225 -55
-415 -162 -562 -317 -44 -47 -182 -244 -416 -595 -381 -571 -443 -649 -608
-768 -142 -102 -330 -183 -507 -218 -104 -21 -368 -18 -475 5 -169 36 -350
116 -481 212 -56 42 -198 164 -290 252 l-37 34 -100 -144 c-566 -811 -960
-1734 -1156 -2709 -34 -168 -99 -589 -92 -596 1 -2 29 6 62 17 57 20 148 42
228 55 22 4 99 6 171 6 572 -1 1065 -387 1210 -946 15 -57 19 -116 21 -315 3
-343 36 -641 114 -1030 93 -464 264 -1052 440 -1519 32 -86 68 -194 80 -241
62 -251 231 -755 251 -748 4 2 45 59 90 128 150 228 313 365 480 405 250 59
505 -63 626 -300 120 -234 173 -531 303 -1690 57 -508 82 -710 111 -905 20
-133 55 -329 65 -362 7 -24 303 -146 604 -249 1038 -355 2168 -469 3268 -329
165 21 524 82 604 103 l48 12 -548 963 c-301 530 -554 967 -562 972 -8 4 -108
17 -221 29 -808 82 -1430 241 -1922 493 -888 455 -1299 1223 -1172 2193 58
443 184 716 454 986 148 147 289 246 481 337 408 194 893 285 1595 300 171 3
299 8 285 10 -169 24 -456 111 -620 188 -134 64 -186 96 -296 180 -377 291
-514 743 -364 1205 81 249 250 510 440 680 293 262 665 407 1185 460 67 7 256
13 427 13 l306 0 5 340 c4 297 7 352 25 426 107 447 433 771 882 877 50 12
156 17 446 22 l381 6 34 27 c26 19 212 317 714 1140 373 612 680 1116 682
1120 6 11 -412 285 -597 390 -951 545 -1950 855 -3035 943 -103 8 -206 15
-231 15 l-44 0 -229 -458z"/>
<path d="M9680 17783 c-14 -2 -90 -13 -170 -24 -1457 -205 -2905 -921 -3968
-1964 l-164 -160 124 -110 c154 -138 174 -152 237 -167 61 -14 131 -1 187 34
27 18 115 141 373 528 367 549 419 620 555 755 317 316 676 501 1151 592 77
14 183 18 740 22 635 6 651 6 696 27 78 36 111 80 214 284 104 206 102 195 25
183z"/>
<path d="M15568 15818 c-8 -13 -300 -491 -648 -1063 -349 -572 -654 -1067
-679 -1100 -139 -187 -348 -335 -574 -409 -145 -47 -235 -56 -586 -56 -303 0
-327 -1 -366 -20 -79 -38 -79 -38 -86 -445 -7 -382 -9 -405 -62 -546 -117
-311 -358 -541 -678 -647 -78 -26 -91 -27 -189 -21 -199 13 -638 10 -770 -6
-270 -31 -445 -98 -561 -214 -71 -72 -131 -169 -150 -244 -11 -47 -11 -49 17
-78 73 -77 306 -157 569 -196 186 -28 653 -25 875 5 315 43 619 114 856 202
90 34 144 64 319 179 461 304 805 488 1156 619 559 210 1036 221 1449 34 114
-51 305 -273 405 -468 158 -310 177 -673 52 -1005 -97 -257 -264 -495 -528
-755 -224 -218 -459 -401 -769 -596 -491 -309 -746 -403 -1130 -414 -164 -6
-215 -2 -830 60 -1222 122 -1698 156 -2200 156 -941 0 -1506 -161 -1659 -471
-61 -124 -98 -399 -81 -597 22 -253 105 -430 279 -602 334 -330 1020 -558
1941 -645 226 -21 302 -33 395 -62 224 -71 433 -224 559 -411 24 -37 315 -544
646 -1127 331 -583 604 -1062 606 -1064 12 -13 548 223 782 346 l142 75 -5 76
c-19 271 -76 1693 -71 1777 22 354 125 605 332 808 132 130 278 210 511 276
254 73 275 85 764 461 397 305 406 313 459 391 50 73 59 95 130 332 93 311 90
285 90 752 0 515 15 634 101 853 70 176 131 268 359 538 230 273 431 460 570
529 120 60 274 95 423 95 l77 0 0 30 c0 53 -30 318 -56 500 -220 1533 -955
2987 -2067 4088 -104 103 -104 103 -119 80z"/>
<path d="M14690 10933 c-14 -2 -76 -17 -138 -33 -335 -87 -761 -311 -1325
-698 -194 -133 -726 -306 -1178 -381 -182 -31 -421 -60 -511 -62 l-53 -2 50
-8 c28 -5 163 -18 300 -29 138 -12 543 -51 900 -86 742 -75 772 -76 929 -23
157 52 530 280 801 491 147 114 333 298 404 398 66 93 118 199 127 257 7 51
-8 113 -38 156 -19 27 -20 27 -131 26 -62 -1 -123 -4 -137 -6z"/>
<path d="M3770 10494 c-8 -3 -109 -51 -223 -107 l-208 -102 6 -100 c77 -1210
408 -2294 1011 -3307 447 -749 1043 -1428 1740 -1981 132 -105 412 -307 424
-307 5 0 6 8 4 18 -4 15 -114 990 -114 1006 0 4 -29 -13 -64 -38 -142 -102
-267 -141 -426 -133 -118 5 -222 36 -327 98 -87 51 -268 236 -342 349 -108
165 -228 424 -332 715 -44 123 -138 430 -168 550 -11 44 -43 141 -71 215 -169
446 -350 1064 -454 1551 -97 454 -156 948 -156 1316 l0 121 -33 43 c-46 61
-123 99 -196 98 -31 0 -63 -3 -71 -5z"/>
<path d="M17674 10038 c-87 -90 -256 -288 -317 -370 -70 -96 -70 -97 -77 -643
-8 -513 -8 -510 -59 -713 -42 -163 -150 -509 -184 -588 -79 -183 -185 -339
-327 -483 -97 -98 -775 -629 -969 -758 -178 -120 -422 -224 -678 -292 -47 -13
-51 -21 -63 -116 -7 -54 36 -1184 46 -1194 1 -2 52 37 111 85 794 652 1412
1415 1879 2319 415 806 688 1743 764 2625 5 69 12 144 15 168 5 42 5 42 -28
42 -29 0 -45 -12 -113 -82z"/>
</g>
</svg>
